<svg xmlns="http://www.w3.org/2000/svg" style="display: none;"><symbol id="envelope" viewBox="0 0 512.001 512.001"><title>envelope</title><path d="M511.646,126.634c-0.021-14.449-11.782-26.189-26.227-26.189c-0.012,0-0.024,0-0.034,0L26.19,101.076 c-7.005,0.009-13.588,2.746-18.535,7.706C2.709,113.743-0.009,120.334,0,127.337l0.355,258.029 c0.009,7.005,2.746,13.588,7.706,18.535c4.951,4.938,11.526,7.655,18.519,7.655c0.012,0,0.025,0,0.035,0l459.194-0.631 c14.458-0.02,26.207-11.799,26.19-26.261L511.646,126.634z M456.611,126.71L256.02,266.154L55.04,127.262L456.611,126.71z M340.846,292.471l118.971,92.265l-407.972,0.56l119.696-92.825c5.722-4.439,6.764-12.675,2.326-18.399 c-4.439-5.722-12.675-6.764-18.399-2.326L26.561,371.715l-0.32-232.475l222.344,153.657c2.244,1.551,4.849,2.325,7.455,2.325 c2.617,0,5.236-0.783,7.485-2.346l221.912-154.264l0.336,233.066l-128.856-99.931c-5.719-4.437-13.959-3.396-18.397,2.326 C334.081,279.795,335.122,288.033,340.846,292.471z"/></symbol><symbol id="smartphone-call" viewBox="0 0 35 35"><title>smartphone-call</title><path d="M25.302,0H9.698c-1.3,0-2.364,1.063-2.364,2.364v30.271C7.334,33.936,8.398,35,9.698,35h15.604 c1.3,0,2.364-1.062,2.364-2.364V2.364C27.666,1.063,26.602,0,25.302,0z M15.004,1.704h4.992c0.158,0,0.286,0.128,0.286,0.287 c0,0.158-0.128,0.286-0.286,0.286h-4.992c-0.158,0-0.286-0.128-0.286-0.286C14.718,1.832,14.846,1.704,15.004,1.704z M17.5,33.818 c-0.653,0-1.182-0.529-1.182-1.183s0.529-1.182,1.182-1.182s1.182,0.528,1.182,1.182S18.153,33.818,17.5,33.818z M26.021,30.625 H8.979V3.749h17.042V30.625z"/></symbol><symbol id="paper-plane" viewBox="0 0 486.736 486.736"><title>paper-plane</title><path d="M481.883,61.238l-474.3,171.4c-8.8,3.2-10.3,15-2.6,20.2l70.9,48.4l321.8-169.7l-272.4,203.4v82.4c0,5.6,6.3,9,11,5.9 l60-39.8l59.1,40.3c5.4,3.7,12.8,2.1,16.3-3.5l214.5-353.7C487.983,63.638,485.083,60.038,481.883,61.238z"/></symbol><symbol id="youtube-symbol" viewBox="0 0 97.75 97.75"><title>youtube-symbol</title><path d="M39.969,59.587c7.334-3.803,14.604-7.571,21.941-11.376c-7.359-3.84-14.627-7.63-21.941-11.447 C39.969,44.398,39.969,51.954,39.969,59.587z"/><path d="M48.875,0C21.883,0,0,21.882,0,48.875S21.883,97.75,48.875,97.75S97.75,75.868,97.75,48.875S75.867,0,48.875,0z M82.176,65.189c-0.846,3.67-3.848,6.377-7.461,6.78c-8.557,0.957-17.217,0.962-25.842,0.957c-8.625,0.005-17.287,0-25.846-0.957 c-3.613-0.403-6.613-3.11-7.457-6.78c-1.203-5.228-1.203-10.933-1.203-16.314s0.014-11.088,1.217-16.314 c0.844-3.67,3.844-6.378,7.457-6.782c8.559-0.956,17.221-0.961,25.846-0.956c8.623-0.005,17.285,0,25.841,0.956 c3.615,0.404,6.617,3.111,7.461,6.782c1.203,5.227,1.193,10.933,1.193,16.314S83.379,59.962,82.176,65.189z"/></symbol><symbol id="soundcloud-logo" viewBox="0 0 97.75 97.75"><title>soundcloud-logo</title><path d="M48.875,0C21.883,0,0,21.882,0,48.875S21.883,97.75,48.875,97.75S97.75,75.868,97.75,48.875S75.867,0,48.875,0z M7.739,62.171C7.712,62.364,7.573,62.5,7.399,62.5c-0.175,0-0.315-0.136-0.339-0.331l-0.621-4.633l0.621-4.713 c0.023-0.196,0.164-0.333,0.339-0.333c0.174,0,0.313,0.136,0.34,0.33l0.736,4.717L7.739,62.171z M10.893,64.991 c-0.03,0.2-0.176,0.342-0.354,0.342c-0.18,0-0.328-0.144-0.353-0.343l-0.834-7.454l0.834-7.622 c0.024-0.199,0.173-0.344,0.353-0.344c0.179,0,0.324,0.141,0.354,0.344l0.948,7.622L10.893,64.991z M14.298,66.252 c-0.026,0.241-0.205,0.415-0.426,0.415c-0.224,0-0.402-0.174-0.425-0.417l-0.792-8.712c0,0,0.792-9.043,0.792-9.044 c0.022-0.241,0.201-0.416,0.425-0.416c0.221,0,0.399,0.175,0.426,0.416l0.899,9.044L14.298,66.252z M17.732,66.529 c-0.024,0.277-0.238,0.488-0.497,0.488c-0.264,0-0.479-0.211-0.5-0.488l-0.748-8.989l0.748-9.292c0.021-0.28,0.236-0.49,0.5-0.49 c0.259,0,0.473,0.21,0.497,0.487l0.85,9.294L17.732,66.529z M21.193,66.604c-0.021,0.318-0.268,0.562-0.57,0.562 c-0.305,0-0.551-0.243-0.571-0.562l-0.706-9.063l0.706-8.619c0.021-0.321,0.267-0.563,0.571-0.563c0.303,0,0.549,0.242,0.57,0.56 l0.801,8.623L21.193,66.604z M24.682,66.607v-0.004c-0.021,0.355-0.302,0.636-0.643,0.636c-0.344,0-0.625-0.28-0.644-0.634 l-0.661-9.062l0.661-14.024c0.019-0.357,0.3-0.636,0.644-0.636c0.341,0,0.622,0.279,0.643,0.635l0.75,14.025L24.682,66.607z M28.145,66.6v-0.005c-0.018,0.398-0.333,0.708-0.716,0.708c-0.384,0-0.698-0.31-0.713-0.705l-0.622-9.007 c0,0,0.619-17.229,0.619-17.23c0.018-0.397,0.332-0.708,0.716-0.708c0.383,0,0.698,0.311,0.716,0.708l0.701,17.23L28.145,66.6z M31.74,66.462v-0.005c-0.018,0.438-0.362,0.779-0.786,0.779c-0.427,0-0.773-0.342-0.788-0.775l-0.577-8.914 c0,0,0.577-18.667,0.577-18.669c0.015-0.438,0.361-0.781,0.788-0.781c0.424,0,0.769,0.343,0.786,0.781l0.652,18.669L31.74,66.462z M35.311,66.402c-0.014,0.478-0.393,0.853-0.859,0.853c-0.47,0-0.846-0.375-0.858-0.849l-0.536-8.858l0.534-19.297 c0.015-0.479,0.391-0.855,0.86-0.855c0.467,0,0.846,0.375,0.859,0.855l0.603,19.298L35.311,66.402z M38.908,66.325v-0.007 c-0.014,0.519-0.423,0.929-0.932,0.929c-0.511,0-0.92-0.41-0.931-0.924l-0.493-8.773l0.49-18.805 c0.014-0.52,0.423-0.927,0.934-0.927c0.509,0,0.918,0.406,0.932,0.925l0.555,18.807L38.908,66.325z M42.534,66.27v-0.006 c-0.011,0.561-0.453,1-1.005,1c-0.551,0-0.994-0.439-1.005-0.994l-0.449-8.719l0.449-18.119c0.011-0.561,0.454-1,1.005-1 c0.552,0,0.994,0.44,1.005,1l0.503,18.121L42.534,66.27z M46.232,65.354l-0.045,0.854c-0.005,0.295-0.13,0.563-0.324,0.758 c-0.195,0.193-0.461,0.314-0.753,0.314c-0.329,0-0.625-0.152-0.824-0.39c-0.146-0.176-0.239-0.399-0.25-0.641 c-0.002-0.012-0.003-0.023-0.003-0.037c0,0-0.408-8.654-0.408-8.667l0.404-21.352l0.004-0.203c0.005-0.377,0.202-0.708,0.497-0.899 c0.167-0.11,0.365-0.175,0.58-0.175c0.218,0,0.424,0.068,0.595,0.184c0.285,0.193,0.476,0.519,0.482,0.889l0.452,21.562 L46.232,65.354z M49.825,66.092V66.09v-0.008c-0.013,0.631-0.525,1.146-1.15,1.146c-0.627,0-1.143-0.515-1.151-1.138l-0.232-4.209 l-0.238-4.325l0.469-23.397l0.002-0.118c0.004-0.356,0.17-0.674,0.427-0.885c0.197-0.164,0.45-0.262,0.725-0.262 c0.214,0,0.414,0.061,0.585,0.165c0.33,0.201,0.559,0.565,0.565,0.98l0.509,23.518L49.825,66.092z M80.872,67.25 c0,0-28.909,0.003-28.937,0c-0.625-0.062-1.121-0.559-1.127-1.198c0,0,0-33.131,0-33.132c0.006-0.609,0.215-0.922,1.004-1.227 c2.025-0.785,4.322-1.248,6.676-1.248c9.627,0,17.515,7.38,18.347,16.787c1.242-0.52,2.606-0.81,4.037-0.81 c5.767,0,10.438,4.674,10.438,10.439C91.311,62.626,86.639,67.25,80.872,67.25z"/></symbol><symbol id="instagram-logo" viewBox="0 0 49.652 49.652"><title>instagram-logo</title><path d="M24.825,29.796c2.739,0,4.972-2.229,4.972-4.97c0-1.082-0.354-2.081-0.94-2.897c-0.903-1.252-2.371-2.073-4.029-2.073 c-1.659,0-3.126,0.82-4.031,2.072c-0.588,0.816-0.939,1.815-0.94,2.897C19.854,27.566,22.085,29.796,24.825,29.796z"/><polygon points="35.678,18.746 35.678,14.58 35.678,13.96 35.055,13.962 30.891,13.975 30.907,18.762 "/><path d="M24.826,0C11.137,0,0,11.137,0,24.826c0,13.688,11.137,24.826,24.826,24.826c13.688,0,24.826-11.138,24.826-24.826 C49.652,11.137,38.516,0,24.826,0z M38.945,21.929v11.56c0,3.011-2.448,5.458-5.457,5.458H16.164 c-3.01,0-5.457-2.447-5.457-5.458v-11.56v-5.764c0-3.01,2.447-5.457,5.457-5.457h17.323c3.01,0,5.458,2.447,5.458,5.457V21.929z"/><path d="M32.549,24.826c0,4.257-3.464,7.723-7.723,7.723c-4.259,0-7.722-3.466-7.722-7.723c0-1.024,0.204-2.003,0.568-2.897 h-4.215v11.56c0,1.494,1.213,2.704,2.706,2.704h17.323c1.491,0,2.706-1.21,2.706-2.704v-11.56h-4.217 C32.342,22.823,32.549,23.802,32.549,24.826z"/></symbol><symbol id="facebook-logo-button" viewBox="0 0 49.652 49.652"><title>facebook-logo-button</title><path d="M24.826,0C11.137,0,0,11.137,0,24.826c0,13.688,11.137,24.826,24.826,24.826c13.688,0,24.826-11.138,24.826-24.826 C49.652,11.137,38.516,0,24.826,0z M31,25.7h-4.039c0,6.453,0,14.396,0,14.396h-5.985c0,0,0-7.866,0-14.396h-2.845v-5.088h2.845 v-3.291c0-2.357,1.12-6.04,6.04-6.04l4.435,0.017v4.939c0,0-2.695,0-3.219,0c-0.524,0-1.269,0.262-1.269,1.386v2.99h4.56L31,25.7z "/></symbol><symbol id="spotify" viewBox="0 0 512 512"><title>spotify</title><path d="M256,0C114.848,0,0,114.848,0,256s114.848,256,256,256s256-114.848,256-256S397.152,0,256,0z M373.44,369.536 c-3.136,4.448-8.064,6.816-13.088,6.816c-3.2,0-6.4-0.928-9.184-2.912c-60-42.176-159.808-44.512-227.2-28.8 c-8.544,2.016-17.216-3.36-19.2-11.968c-1.984-8.608,3.328-17.216,11.968-19.232c74.08-17.152,184.8-14.016,252.8,33.824 C376.768,352.352,378.496,362.304,373.44,369.536z M404.672,307.104c-3.136,4.352-8.032,6.656-12.992,6.656 c-3.264,0-6.496-0.96-9.344-3.008c-69.6-49.952-155.104-62.368-269.216-39.072c-8.608,1.696-17.12-3.808-18.88-12.48 c-1.792-8.64,3.808-17.12,12.448-18.88c123.424-25.184,216.928-11.104,294.304,44.416 C408.16,289.92,409.824,299.904,404.672,307.104z M436.224,223.264c-3.104,4.576-8.16,7.008-13.248,7.008 c-3.104,0-6.24-0.896-8.992-2.752c-88.224-59.872-222.336-60.16-309.152-29.44c-8.32,2.88-17.472-1.44-20.416-9.792 c-2.944-8.32,1.408-17.472,9.76-20.416C188.608,134.496,334.944,135.2,432,201.024 C439.296,205.984,441.152,215.936,436.224,223.264z"/></symbol></svg>